<svg width="64" height="64" viewBox="0 0 64 64" xmlns="http://www.w3.org/2000/svg">
  <rect width="64" height="64" fill="#000000"/>
  <g transform="translate(6.75 6) scale(1.485714)">
    <path d="M30.6682 25.447C30.2704 25.8565 29.9591 25.8981 29.5801 25.8981C29.4259 25.8981 29.272 25.8709 29.1237 25.8147C28.689 25.6494 28.4138 25.2587 28.4053 24.7951C28.3952 24.2222 28.6471 23.9003 28.8606 23.7313C29.3928 23.3104 30.4031 23.4341 30.5043 24.148C30.6995 23.7462 30.6486 23.201 30.5628 23.0479C30.4375 22.8246 30.2624 22.6617 30.0079 22.573C28.9931 22.2186 28.5062 23.0299 28.4866 23.063C28.3658 23.2649 28.1044 23.33 27.9031 23.2108C27.7012 23.0903 27.635 22.8294 27.7552 22.6275C28.0413 22.1473 28.934 21.3484 30.2598 21.76C30.7959 21.9266 31.2287 22.3121 31.3588 22.849C31.616 23.9141 31.1172 24.9848 30.6682 25.447ZM20.1945 24.5538C19.6774 24.5538 19.2581 24.1345 19.2581 23.6174C19.2581 23.1004 19.6774 22.6813 20.1945 22.6813C20.7116 22.6813 21.1306 23.1004 21.1306 23.6174C21.1306 24.1345 20.7116 24.5538 20.1945 24.5538ZM19.2918 28.2069C17.8982 28.4856 17.2913 27.2798 17.1038 26.7837C17.0643 26.6793 17.1345 26.5664 17.2452 26.5524L20.844 26.0947C20.9587 26.0801 21.0546 26.1779 21.0382 26.292C20.9661 26.7842 20.653 27.9346 19.2918 28.2069ZM16.1221 24.0389C16.1221 23.5218 16.5411 23.1025 17.0582 23.1025C17.5753 23.1025 17.9943 23.5218 17.9943 24.0389C17.9943 24.5559 17.5753 24.975 17.0582 24.975C16.5411 24.975 16.1221 24.5559 16.1221 24.0389ZM9.61535 28.7666C9.35496 28.8969 9.0763 28.9306 8.81167 28.9306C8.30441 28.9306 7.8186 28.6705 7.4361 28.2233C6.87665 27.5701 6.62978 26.46 7.24035 25.602C8.07501 24.4293 9.3992 24.5308 9.98248 24.7482C10.2029 24.8301 10.3147 25.0754 10.2325 25.2955C10.1507 25.5154 9.90566 25.6269 9.68713 25.5464C9.63892 25.5289 8.57963 25.1596 7.93356 26.0957C7.4504 26.7958 8.09991 27.6763 8.09991 27.6763C8.09991 27.6763 8.09912 27.6652 8.09859 27.6456C8.0962 27.5465 8.10177 27.23 8.25779 27.0112C8.45301 26.7381 8.75684 26.6303 8.89749 26.5977C9.18384 26.5315 9.44582 26.5763 9.66514 26.6454C10.0982 26.7813 10.3994 27.1346 10.4323 27.5455C10.4495 27.7637 10.409 28.3698 9.61535 28.7666ZM29.7292 20.4684C28.4418 20.4173 27.4239 21.3436 27.4138 21.3532L27.4127 21.3537C27.3754 21.3887 27.3325 21.4151 27.2861 21.4345C27.284 21.4353 27.2819 21.4366 27.2798 21.4374C27.2358 21.4551 27.1889 21.4641 27.141 21.4663C27.1367 21.4665 27.1328 21.4671 27.1285 21.4671C27.084 21.4679 27.0392 21.4607 26.995 21.4469C26.9879 21.4445 26.9807 21.4422 26.9736 21.4395C26.964 21.4361 26.9545 21.434 26.9452 21.4297C26.9118 21.4146 26.8824 21.3945 26.8551 21.3725C26.8528 21.3704 26.8498 21.3698 26.8477 21.368C26.8146 21.341 24.4333 19.4385 18.3376 20.3402C12.3646 21.2252 10.9793 23.4352 10.966 23.4574C10.9557 23.4747 10.9409 23.4879 10.9284 23.5033C10.9215 23.512 10.9194 23.5226 10.9117 23.5308C10.9051 23.538 10.8971 23.5433 10.8903 23.5499C10.8858 23.5539 10.8813 23.5576 10.8767 23.5615C10.815 23.6156 10.7425 23.6495 10.6656 23.6617C10.6606 23.6625 10.6556 23.6625 10.6503 23.6633C10.6331 23.6654 10.6158 23.6686 10.5984 23.6686C10.5891 23.6686 10.5801 23.6641 10.5708 23.6635C10.5581 23.6627 10.5456 23.6654 10.5327 23.6635C10.5258 23.6625 10.0818 23.5954 9.46224 23.5954C9.08371 23.5954 8.64002 23.6203 8.18998 23.7006C6.70924 23.9647 5.84915 24.6873 5.63353 25.8483C5.47936 26.6798 5.50453 27.8946 6.50183 28.9584C7.83264 30.3779 11.1795 31.8603 19.5662 30.8563C29.5724 29.6588 31.9169 26.1596 32.4605 24.7106C32.8782 23.5973 32.7127 22.4728 32.0176 21.7023C31.3106 20.9185 30.5406 20.5031 29.7292 20.4684Z" fill="#FFFFFF"/>
    <path d="M18.0567 20.0148C22.4391 19.365 25.0244 20.0938 26.2852 20.6723C26.5692 20.8026 26.9024 20.6757 27.0322 20.3918C27.2444 19.9271 27.5175 19.3288 27.8221 18.6602C27.9604 18.3563 27.8068 18.0003 27.4926 17.8872C18.5311 14.6566 10.8941 18.6647 8.32309 20.2993C8.00522 20.5014 7.96999 20.9499 8.25025 21.201C8.95141 21.829 9.55907 22.3792 9.99772 22.7776C10.2107 22.9715 10.5354 22.9765 10.7505 22.785C11.6896 21.9501 13.778 20.6487 18.0567 20.0148Z" fill="#FFE669"/>
    <path d="M13.7602 14.5908C13.6985 14.6224 13.6325 14.6372 13.5676 14.6372C13.4124 14.6372 13.2632 14.5522 13.188 14.4043L10.8477 9.80136C10.741 9.5921 10.8247 9.33569 11.0342 9.22947C11.2435 9.12245 11.4999 9.20669 11.6061 9.41595L13.9467 14.0187C14.0534 14.2282 13.9697 14.4843 13.7602 14.5908ZM21.34 12.7981L22.0886 8.39798C22.128 8.16647 22.3474 8.01203 22.5797 8.04991C22.8112 8.08938 22.9672 8.30898 22.9275 8.54102L22.1786 12.9411C22.1437 13.1485 21.9635 13.2953 21.7598 13.2953C21.736 13.2953 21.7122 13.2931 21.6878 13.2892C21.4563 13.2497 21.3003 13.0301 21.34 12.7981ZM28.4327 17.3134C28.7137 17.4169 29.0273 17.2914 29.151 17.0185C29.6329 15.9569 30.1266 14.8637 30.5454 13.9283C31.7141 11.3187 32.7371 7.43669 31.7745 5.0858C31.4127 4.20213 30.8114 3.60613 29.9364 3.26416C27.5127 2.3177 26.0023 3.17939 24.6702 3.93989C23.8639 4.39974 23.1693 4.79681 22.4046 4.69403C21.5649 4.58066 21.1527 3.77195 20.7162 2.91635C19.9774 1.46661 19.139 -0.180734 16.1693 0.016078C13.0725 0.216599 11.8103 2.58816 10.7963 4.49377C10.2239 5.56922 9.72962 6.49819 8.99428 6.89367C8.1824 7.33127 7.17582 7.21419 6.1107 7.08969C4.44719 6.89605 2.72647 6.695 1.19011 8.31004C0.33955 9.2051 -0.0479842 10.1394 0.00472882 11.1669C0.131876 13.6372 2.8613 16.2453 4.90307 17.992C5.66966 18.6476 6.46485 19.3422 7.22244 20.0113C7.41634 20.1826 7.69818 20.2009 7.91274 20.0563C10.0726 18.5986 18.4879 13.6481 28.4327 17.3134Z" fill="#FFE669"/>
  </g>
</svg>
